<?xml version="1.0" encoding="UTF-8" standalone="no"?>
<svg xmlns:dc="http://purl.org/dc/elements/1.1/" xmlns:cc="http://creativecommons.org/ns#" xmlns:rdf="http://www.w3.org/1999/02/22-rdf-syntax-ns#" xmlns:svg="http://www.w3.org/2000/svg" xmlns="http://www.w3.org/2000/svg" xmlns:sodipodi="http://sodipodi.sourceforge.net/DTD/sodipodi-0.dtd" xmlns:inkscape="http://www.inkscape.org/namespaces/inkscape" id="Calque_1" data-name="Calque 1" viewBox="0 0 604.61017 244.96609" version="1.1" sodipodi:docname="LOGO OCDM SVG_rogne.svg" width="604.61017" height="244.96609" inkscape:version="0.92.4 (5da689c313, 2019-01-14)">
  <metadata id="metadata87">
    <rdf:RDF>
      <cc:Work rdf:about="">
        <dc:format>image/svg+xml</dc:format>
        <dc:type rdf:resource="http://purl.org/dc/dcmitype/StillImage"/>
        <dc:title/>
      </cc:Work>
    </rdf:RDF>
  </metadata>
  <sodipodi:namedview pagecolor="#ffffff" bordercolor="#666666" borderopacity="1" objecttolerance="10" gridtolerance="10" guidetolerance="10" inkscape:pageopacity="0" inkscape:pageshadow="2" inkscape:window-width="1127" inkscape:window-height="785" id="namedview85" showgrid="false" inkscape:zoom="0.39597315" inkscape:cx="307.35593" inkscape:cy="143.99915" inkscape:window-x="2056" inkscape:window-y="185" inkscape:window-maximized="0" inkscape:current-layer="Calque_1"/>
  <defs id="defs4">
    <style id="style2">.cls-1{fill:#fefefe;}.cls-2{fill:#4976b4;}.cls-3{fill:#4a76b4;}.cls-4{fill:#4a77b4;}.cls-5{fill:#787978;}.cls-6{fill:#757675;}.cls-7{fill:#767675;}</style>
  </defs>
  <path class="cls-1" d="m 302.30508,0 q 150.33395,0 300.65354,0 c 1.34996,0 1.65155,0.17263 1.65155,0.94123 q -0.0503,121.54182 0,243.07953 c 0,0.77271 -0.30159,0.94534 -1.65155,0.94534 q -300.65354,-0.0288 -601.30707,0 C 0.30158,244.9661 0,244.79347 0,244.02487 Q 0.0503,122.48305 0,0.94123 C 0,0.17263 0.30158,0 1.65155,0 Q 151.97114,0.008 302.30508,0 Z M 146.09736,152.74623 a 50.063445,28.656102 0 0 0 8.02797,-0.41102 c 24.53625,-2.21949 42.45196,-15.01856 40.92966,-29.1822 -0.91912,-8.43407 -7.18064,-15.2775 -18.66967,-20.55085 -18.30346,-8.39707 -45.95612,-7.85453 -62.9886,1.18784 a 16.709357,9.5643645 0 0 0 -3.90628,2.65106 c -0.38774,0.44801 -0.61753,0.93712 0,1.34403 0.61754,0.40691 1.43614,0.0863 2.09675,-0.11509 a 59.599339,34.114407 0 0 1 25.31177,-4.0814 c 10.87868,-0.37813 20.82387,1.14674 29.11033,5.28568 7.95615,3.9622 12.45123,8.8122 10.3114,15.06788 -1.54384,4.52119 -5.81632,7.9203 -13.06877,9.93428 a 10.397572,5.9515254 0 0 1 -13.57859,-2.58119 c -2.21164,-2.4661 -0.10053,-4.46775 4.68178,-4.45542 a 15.079351,8.6313559 0 0 1 1.96749,0.074 c 2.4127,0.19729 3.08768,-0.20962 2.58503,-1.58652 -0.76832,-2.13318 -3.87036,-3.51009 -8.12848,-3.55529 -5.02645,-0.0534 -9.13378,1.23304 -12.62358,3.16071 -2.82199,1.5742 -5.40702,3.28814 -8.22183,4.86644 -6.56311,3.67038 -15.23014,3.69916 -22.00867,0.14386 a 34.280391,19.621949 0 0 1 -7.63303,-6.16526 c -0.35903,-0.41101 -0.66062,-0.95766 -1.75208,-0.82203 -1.09145,0.13563 -1.12735,0.62063 -1.30687,1.10153 -0.50982,1.37279 -0.0934,2.73737 0.1867,4.0855 2.90098,13.98691 23.96898,24.60348 48.67757,24.60348 z m 146.97342,-16.16941 c 6.28306,0 12.55894,-0.037 18.83483,0.0247 1.70181,0 2.11111,-0.31237 2.15419,-1.20017 a 47.061937,26.938051 0 0 0 -0.66062,-5.92275 c -1.29252,-3.96221 -3.99962,-7.53805 -9.43537,-10.22199 -12.52304,-6.16526 -32.74373,-4.7678 -42.41605,2.91411 -5.29932,4.21292 -6.95087,8.94373 -5.74452,14.00335 1.0771,4.63626 4.76794,8.4875 11.36696,11.33584 a 30.91267,17.69428 0 0 0 17.65001,3.45254 c 9.95238,0.25484 18.60505,-1.38512 25.40512,-5.75423 0.8186,-0.52199 0.71806,-0.78505 -0.17951,-1.20428 -2.54913,-1.23305 -5.07672,-2.49487 -7.51814,-3.80602 -0.91912,-0.49322 -1.43613,-0.43568 -2.34807,0 a 19.315931,11.056356 0 0 1 -12.66665,2.93466 c -7.29553,0.11509 -12.55895,-1.8989 -14.6916,-5.6597 -0.4452,-0.78915 -0.25132,-0.99055 1.23507,-0.98233 6.34051,0.0863 12.68102,0.0863 19.01435,0.0863 z m 186.69673,0 c 6.40513,0 12.80308,-0.0247 19.20103,0 1.43613,0 1.84543,-0.25482 1.85261,-1.03987 a 59.987095,34.336356 0 0 0 -0.33031,-5.12538 c -1.01965,-3.90466 -3.35336,-7.48462 -8.21466,-10.37818 -10.96484,-6.52695 -31.11372,-6.16526 -42.04984,0.82204 -6.78571,4.32389 -8.88964,9.51915 -7.64021,15.16652 1.21353,5.51996 5.95276,9.83152 14.48336,12.62233 6.85034,2.24415 14.28948,2.76615 22.01585,2.12907 a 28.780018,16.473559 0 0 0 17.91571,-5.51585 c 0.76833,-0.49733 0.79705,-0.77271 -0.12207,-1.23305 q -3.84883,-1.84547 -7.5325,-3.79369 c -0.88322,-0.46856 -1.43613,-0.48911 -2.34807,0 a 19.172317,10.974153 0 0 1 -12.6523,2.95111 c -7.34579,0.11919 -12.74563,-1.96878 -14.77776,-5.75424 -0.4093,-0.7686 -0.10053,-0.90013 1.21353,-0.89602 6.29742,0.0452 12.63793,0.0452 18.97844,0.0452 z m -123.83739,10.11102 c 0,1.03987 0.079,1.84957 0,2.65106 -0.0862,0.70695 0.31596,0.94123 1.59411,0.9289 4.36583,-0.0452 8.73167,-0.0493 13.09749,0 1.43614,0 1.80234,-0.21373 1.79516,-1.02755 -0.0574,-6.36254 0,-12.74152 0,-19.08762 a 36.542294,20.916653 0 0 0 -0.43802,-3.4731 c -1.50075,-5.15415 -6.24716,-8.80809 -15.25886,-10.16444 -11.3167,-1.6975 -22.38207,-0.90013 -33.12431,1.64406 -1.08428,0.25894 -0.81141,0.62064 -0.55291,1.06865 1.09864,1.87835 2.24036,3.74847 3.20257,5.64737 0.4093,0.82203 0.88322,0.97822 2.30498,0.67407 a 39.780764,22.770339 0 0 1 16.33597,-1.52077 c 6.69954,0.21784 10.26832,1.94412 11.12282,5.27335 0.35902,1.4139 0.30876,1.42623 -2.04649,1.05221 -8.37981,-1.33581 -16.7668,-1.52899 -25.01736,0.21372 -6.54874,1.38513 -10.46938,4.11018 -11.28079,8.11759 -0.76833,3.83479 0.78987,7.21335 6.34051,9.7 6.75698,3.02919 18.60504,3.34568 26.51093,0.75627 a 29.01698,16.609195 0 0 0 5.4142,-2.45377 z m 42.45197,-25.9886 c 0,-1.43445 -0.0646,-2.58941 0,-3.74026 0.0431,-0.68229 -0.22978,-0.96589 -1.5582,-0.95355 -4.66741,0.0452 -9.33483,0.0369 -13.99507,0 -1.1489,0 -1.54384,0.1644 -1.53666,0.85491 q 0.0431,16.26394 0,32.52377 c 0,0.77682 0.52418,0.88369 1.68027,0.87547 4.54535,-0.0288 9.09069,-0.0452 13.64322,0 1.43613,0 1.79517,-0.22606 1.78799,-1.03165 -0.0574,-5.47064 0,-10.94539 0,-16.41602 0,-1.02344 0,-2.05509 0.1436,-3.07441 0.35904,-2.56063 2.87226,-4.52119 6.76417,-5.15004 4.15759,-0.67818 8.10695,-0.47678 11.15872,1.51665 2.15419,1.38924 2.57785,3.11962 2.57785,4.89932 0,6.08716 0,12.17432 0,18.26148 0,0.73984 0.27286,1.01111 1.66591,0.99467 4.60279,-0.0534 9.21277,-0.0493 13.81556,0 1.3356,0 1.71617,-0.19318 1.70899,-0.96589 -0.0574,-5.16649 0,-10.32886 -0.0431,-15.49534 0,-2.66339 0.28723,-5.34322 -0.30158,-7.99017 -0.94067,-4.21293 -3.90627,-7.73945 -11.20181,-9.40407 -7.61866,-1.7386 -14.97164,-1.40979 -21.61373,1.60297 -1.64437,0.73161 -2.91535,1.63585 -4.69614,2.69216 z m -199.16233,11.50847 a 31.35787,17.94911 0 0 0 4.3084,10.39873 c 10.39756,10.12746 37.10956,11.30297 50.36503,2.66339 0.71806,-0.45623 0.56726,-0.69051 -0.1149,-1.07275 -2.72864,-1.5331 -5.44292,-3.07852 -8.07103,-4.66915 -0.84014,-0.50967 -1.32843,-0.41102 -2.10393,0 a 22.54004,12.901822 0 0 1 -4.93311,2.03042 c -7.47505,2.26881 -16.58011,0.90834 -20.43611,-3.16894 -3.23847,-3.42788 -3.26001,-6.98729 0.0503,-10.3864 2.87226,-2.94699 7.45351,-4.36089 13.39191,-4.15538 a 15.955389,9.1327968 0 0 1 10.87149,3.01275 c 1.13454,0.69462 1.73054,0.62886 2.72146,-0.0575 1.5223,-1.05221 3.28156,-1.98933 4.84694,-3.02098 1.35714,-0.90012 4.06424,-1.64407 3.68367,-2.74559 -0.38057,-1.10152 -2.87226,-1.83314 -4.68178,-2.56064 -6.76417,-2.70449 -14.36129,-3.34567 -22.38925,-2.9141 a 30.366941,17.381907 0 0 0 -27.50904,16.64205 z m 297.32891,-30.89614 c 0.24414,2.1825 -1.43614,3.26758 -5.02645,3.32924 a 9.1984045,5.2651271 0 0 1 -5.17007,-0.6864 c -1.69463,-0.59187 -1.62282,0.29182 -2.15419,0.71106 -0.79705,0.6083 -0.23696,0.85903 0.71807,1.10974 a 15.222964,8.7135591 0 0 0 8.91835,0.67818 c 4.452,-0.41102 6.75699,-1.87424 6.88624,-4.45954 0.12925,-2.58529 0,-5.12538 0,-7.68601 0,-0.22606 0.15797,-0.58775 -0.32313,-0.62475 a 15.467105,8.8533048 0 0 0 -3.20975,-0.0411 c -1.06991,0.0452 -0.2226,0.73161 -0.84013,0.96178 -5.21315,-1.71394 -9.18405,-1.54543 -11.95578,0.50143 a 8.7747463,5.0226271 0 0 0 0.61036,6.31734 c 3.07331,1.75093 7.30989,1.72627 11.54648,-0.11509 z m -192.6064,0.52199 c -5.7876,0 -11.10127,0 -16.41495,0 a 1.4361287,0.82203393 0 0 0 -1.43613,0.4439 q -3.89191,3.85945 -7.84845,7.69013 c -0.61034,0.59186 -0.17951,0.68639 0.77552,0.67817 2.15419,0 4.34428,-0.16029 6.46257,0.0247 4.46636,0.41102 7.45351,-0.53843 9.93084,-2.67983 2.47732,-2.1414 5.45728,-4.00741 8.5306,-6.16114 z m 66.52148,-3.28813 a 8.8393721,5.0596187 0 0 0 -9.09787,-5.12539 c -5.42857,0 -9.50718,2.24005 -9.45691,5.2117 a 8.9973459,5.1500424 0 0 0 9.27739,5.10894 c 5.26341,0.004 9.27021,-2.2236 9.27739,-5.17881 z m 51.70063,3.76491 c 0.34467,1.25771 0.49547,1.26593 3.21693,1.19195 1.73054,-0.0493 1.06274,-0.74805 1.06992,-1.18784 0.0647,-2.425 0.0574,-4.85 0,-7.27911 0,-1.64407 0.54572,-1.37691 -2.58503,-1.455 -1.31407,-0.0288 -1.58693,0.25072 -1.55821,0.94123 0.0647,1.64406 0.079,3.28813 -0.0359,4.9322 a 3.5903217,2.0550847 0 0 1 -3.74829,2.13318 c -2.15419,0 -3.43953,-0.70695 -3.54724,-2.07975 -0.12207,-1.5002 -0.0503,-3.00453 -0.0862,-4.52118 -0.0431,-1.58242 0.4093,-1.36458 -2.51322,-1.38924 -0.23696,0 -0.4811,0 -0.71806,0 -0.5601,0 -0.91195,0.0945 -0.89041,0.46034 0.12925,2.31813 -0.38775,4.6486 0.29441,6.95029 0.48828,1.66874 2.56349,2.58119 5.49319,2.68806 2.1901,0.0986 3.94218,-0.36992 5.59373,-1.36869 z M 378.4199,94.87093 c 0.71807,-1.42623 -0.81859,-1.23305 -2.15419,-1.27415 -1.52948,-0.0658 -1.88133,0.2425 -1.8526,1.08097 0.10052,2.59763 0.1436,5.19937 0,7.80933 -0.0647,1.0522 0.78268,1.03987 2.1111,1.0522 1.32842,0.0123 2.08957,-0.037 1.98904,-1.00699 -0.15797,-1.5331 -0.10053,-3.07441 0,-4.61161 0.10053,-1.53721 1.64436,-2.425 3.92781,-2.40445 2.28345,0.0206 3.54006,0.89602 3.59033,2.42911 0,1.40157 0,2.80313 0,4.2047 0.0431,1.50843 -0.58882,1.32348 2.5204,1.38513 1.19198,0 1.5223,-0.20551 1.50076,-0.87136 -0.0718,-1.87834 0,-3.7608 -0.0431,-5.63915 -0.0718,-2.41266 -2.54194,-3.69915 -6.7498,-3.60051 -1.9675,0.0206 -3.29591,0.60831 -4.83976,1.44678 z m 89.03998,-0.0616 c 0.51701,-1.15907 -0.53137,-1.1714 -1.93878,-1.23305 -1.78079,-0.0658 -2.15419,0.27538 -2.15419,1.23305 q 0.1867,3.84301 0,7.69013 c -0.0574,0.97822 0.71806,1.02343 2.01058,0.99055 1.16327,-0.0288 2.19728,0.10275 2.08239,-0.94534 -0.17234,-1.50021 -0.0647,-3.00865 0,-4.52119 0,-0.82203 0.31595,-1.58241 1.51511,-2.1003 a 3.7267539,2.133178 0 0 1 3.89909,-0.27538 c 1.50794,0.36992 2.04649,1.13441 2.08239,1.99344 0.0718,1.43444 0,2.87712 0,4.30746 0,1.67694 0,1.64406 2.97997,1.53309 0.76833,-0.0329 1.04119,-0.16852 1.03401,-0.60831 0,-2.11674 0.079,-4.24169 -0.0933,-6.35432 -0.1508,-1.93589 -2.52041,-3.08263 -5.86659,-3.1525 -2.1901,-0.0164 -3.85601,0.53432 -5.55064,1.44267 z m -66.93077,8.88619 a 17.434602,9.9794914 0 0 0 2.15419,-0.1192 c 2.55631,-0.31237 4.17195,-1.28648 4.40891,-2.60584 0.25132,-1.4098 -0.82578,-2.3428 -3.47543,-2.97577 -0.88322,-0.20962 -1.8167,-0.33703 -2.70711,-0.53432 a 11.015107,6.305 0 0 1 -2.27625,-0.58365 c -1.12737,-0.43978 -0.99812,-1.08508 0.22259,-1.43856 a 3.1882056,1.8249153 0 0 1 2.09675,-0.13974 11.302333,6.469407 0 0 1 3.36772,0.66996 c 1.35715,0.43156 1.27815,-0.36992 1.66591,-0.67407 0.38776,-0.30415 1.18481,-0.67407 0.0718,-0.99877 -2.87225,-0.84259 -5.81631,-1.29882 -8.93989,-0.50966 a 4.7823084,2.7373729 0 0 0 -3.00151,2.67983 4.308386,2.4661017 0 0 0 2.97279,2.44144 c 1.48638,0.34525 3.05895,0.57953 4.5597,0.90835 0.89758,0.19728 1.85979,0.45212 1.60128,1.16318 -0.2585,0.71105 -1.19198,0.79737 -2.15419,0.82203 a 8.3798108,4.7965678 0 0 1 -5.06953,-0.87547 c -1.43613,-0.53021 -1.51512,0.30416 -2.06084,0.64119 -0.6678,0.41101 -0.58882,0.74394 0.33749,1.0481 a 12.250177,7.0119489 0 0 0 6.22562,1.08097 z m -57.7252,0 c 2.62811,0 4.63152,-0.41102 6.20408,-1.31115 0.30876,-0.17263 0.83295,-0.30004 0.61753,-0.66173 a 2.3767929,1.3604661 0 0 0 -3.38926,-0.67818 c -3.13795,1.23305 -7.02267,0.54254 -8.08541,-1.47556 a 5.7875985,3.3127966 0 0 1 1.83825,-3.6005 c 1.88133,-0.82204 3.99962,-0.74394 6.4195,0.25483 1.83105,0.76038 1.96749,-0.45623 2.80763,-0.78093 0.96938,-0.38225 0.0646,-0.68229 -0.45956,-0.9289 a 9.4784495,5.4254237 0 0 0 -10.89304,-0.32882 9.2414883,5.2897881 0 0 0 -3.68367,5.94742 8.6167717,4.9322034 0 0 0 8.62395,3.56352 z m 98.73385,-4.85 c 0,0.68228 0,1.36457 0,2.05508 -0.0359,1.01521 0.34467,1.92767 2.08239,2.41678 a 6.462579,3.6991525 0 0 0 5.86658,0 c 1.28533,-0.34936 0.71807,-1.12208 0.57445,-1.64407 -0.14361,-0.52199 -1.06273,-0.11919 -1.60129,-0.074 -1.98185,0.16852 -2.87225,-0.25483 -2.91533,-1.43034 0,-0.92068 0,-1.84547 0,-2.76614 0,-1.77149 0,-1.80848 3.03741,-1.78382 1.25661,0 1.54383,-0.21783 1.63001,-0.92067 0.12924,-0.97822 -0.5601,-1.12619 -2.03213,-1.09331 -2.62811,0.0616 -2.69992,0 -2.60657,-1.48377 0.0503,-0.84258 -0.1508,-1.23305 -1.95313,-1.23305 -1.80235,0 -2.3768,0.30826 -2.08957,1.27004 0.0503,0.16441 0,0.34115 0,0.50966 0.10771,0.61653 0,1.10153 -1.43614,0.97 -0.71806,-0.0658 -0.96938,0.22195 -0.86167,0.56721 0.15079,0.46444 -0.51701,1.30703 0.56009,1.32347 2.19728,0.0288 1.73054,0.82203 1.7449,1.50432 0.008,0.59597 0,1.2125 0,1.82903 z m -9.99546,-2.2606 c 0,1.84547 0,3.69916 0,5.5364 0,1.50432 -0.58881,1.31936 2.52041,1.38102 1.19199,0 1.50793,-0.20551 1.50075,-0.86725 -0.0503,-3.99919 -0.079,-7.99839 0,-11.99347 0,-1.07687 -1.15608,-0.78916 -2.15419,-0.82204 -0.99811,-0.0329 -1.99622,-0.15618 -1.93878,0.82204 0.15798,1.99343 0.0862,3.97864 0.0862,5.95974 z m 22.74828,1.83725 c 0,1.43445 0,2.87712 0,4.29923 0,0.55899 0.24414,0.82204 1.2997,0.77272 a 8.0279592,4.5951695 0 0 1 1.60846,0 c 0.91913,0.0452 1.25661,-0.15207 1.24943,-0.69462 q -0.0574,-4.2458 0,-8.49572 c 0,-0.52199 -0.24414,-0.7686 -1.20635,-0.71106 a 5.9455727,3.4032203 0 0 1 -1.43612,0 c -1.14891,-0.0863 -1.57975,0.15208 -1.53666,0.82203 0.079,1.36047 0.0216,2.70449 0.0216,4.02386 z m 2.0752,-6.33377 c 1.66591,0.30004 2.1542,-0.0945 2.1542,-1.10153 0.0718,-1.07686 -0.76833,-1.08919 -2.1542,-1.10974 -1.55101,-0.0247 -2.31934,0.0699 -2.27626,1.16729 0.0215,1.03576 0.61754,1.28648 2.27626,1.06042 z" id="path6" inkscape:connector-curvature="0" style="fill:#fefefe;stroke-width:0.54326475"/>
  <path class="cls-2" d="m 89.81593,174.64695 c -34.41,0 -63.75,-25.83 -67.8,-59.81 -0.39,-3.28 -1,-6.6 -0.26,-9.94 0.25,-1.17 0.44,-2.4 1.82,-2.68 1.38,-0.28 1.94,1 2.44,2 a 47.74,47.74 0 0 0 10.63,15 c 9.44,8.61 21.51,8.58 30.65,-0.35 3.92,-3.84 7.52,-8 11.45,-11.84 4.86,-4.72 10.61,-7.85 17.61,-7.72 5.93,0.11 10.25,3.46 11.32,8.65 0.7,3.35 -0.24,4.34 -3.6,3.86 a 21,21 0 0 0 -2.74,-0.18 c -6.66,0 -9.6,4.86 -6.52,10.84 a 14.48,14.48 0 0 0 18.91,6.28 c 10.1,-4.9 16,-13.21 18.2,-24.17 3,-15.22 -3.28,-27 -14.36,-36.66 -11.58,-10.07 -25.39,-13.78 -40.54,-12.86 a 83,83 0 0 0 -35.25,9.93 c -0.9,0.49 -1.93,1.38 -2.92,0.28 -0.99,-1.1 -0.58,-2.18 0,-3.27 a 23.27,23.27 0 0 1 5.44,-6.45 c 23.72,-22 62.23,-23.32 87.72,-2.89 16,12.81 24.74,29.46 26,50 2.15,34.51 -22.8,65.65 -57,71 a 69.72,69.72 0 0 1 -11.2,0.98 z" id="path8" inkscape:connector-curvature="0" style="fill:#4976b4"/>
  <path class="cls-3" d="m 294.49593,135.30695 c -8.82,0 -17.65,0.06 -26.48,0 -2.07,0 -2.34,0.47 -1.72,2.39 3,9.15 10.3,14.05 20.46,13.77 a 26.9,26.9 0 0 0 17.6,-7.23 c 1.23,-1.1 2,-1.24 3.27,0 3.4,3.19 6.92,6.25 10.47,9.26 1.22,1 1.39,1.66 0.25,2.93 -9.47,10.59 -21.52,14.58 -35.38,14 a 43.05,43.05 0 0 1 -24.61,-8.57 c -9.19,-6.93 -14.33,-16.3 -15.83,-27.58 -1.64,-12.31 0.66,-23.82 8,-34.07 13.47,-18.69 41.63,-22.13 59.07,-7.09 7.57,6.53 11.34,15.23 13.14,24.87 a 65.54,65.54 0 0 1 0.92,14.41 c -0.07,2.16 -0.64,3 -3,2.92 -8.67,-0.15 -17.41,-0.01 -26.16,-0.01 z m -11.64,-14.92 h 12.5 c 6,0 6,-0.08 3.91,-5.84 -3.11,-8.42 -9.86,-12.52 -18.74,-11.4 -7.19,0.91 -12.92,6.95 -14.77,15.31 -0.37,1.71 0.09,2 1.62,2 5.15,-0.15 10.32,-0.07 15.48,-0.07 z" id="path10" inkscape:connector-curvature="0" style="fill:#4a76b4"/>
  <path class="cls-3" d="m 554.48593,135.30695 c -8.83,0 -17.66,0 -26.48,0 -1.83,0 -2.26,0.31 -1.69,2.18 2.83,9.19 10.35,14.27 20.58,14 a 26.7,26.7 0 0 0 17.62,-7.18 c 1.28,-1.15 2,-1.1 3.27,0 q 5.13,4.74 10.49,9.23 c 1.28,1.08 1.24,1.75 0.17,3 a 40.08,40.08 0 0 1 -24.95,13.42 c -10.76,1.55 -21.12,0.28 -30.66,-5.18 -11.88,-6.79 -18.48,-17.28 -20.17,-30.71 -1.74,-13.74 1.19,-26.38 10.64,-36.9 15.23,-17 43.29,-17.86 58.56,-2 6.77,7 10,15.75 11.44,25.25 a 83.54,83.54 0 0 1 0.5,12.45 c 0,1.91 -0.57,2.56 -2.58,2.53 -8.87,-0.2 -17.82,-0.09 -26.74,-0.09 z m -11.13,-14.92 h 11.74 c 6.57,0 6.6,0 4.14,-6.27 -3.06,-7.75 -9.82,-12 -17.54,-11.09 -8.11,1 -14.23,7 -15.83,15.37 -0.3,1.6 0.19,2 1.75,2 5.22,-0.09 10.47,-0.01 15.74,-0.01 z" id="path12" inkscape:connector-curvature="0" style="fill:#4a76b4"/>
  <path class="cls-3" d="m 382.03593,159.90695 a 40.41,40.41 0 0 1 -7.61,6 c -11,6.3 -27.51,5.53 -36.92,-1.84 -7.73,-6 -9.9,-14.27 -8.83,-23.6 1.13,-9.79 6.59,-16.38 15.71,-19.75 11.49,-4.24 23.17,-3.77 34.84,-0.52 3.28,0.91 3.35,0.88 2.85,-2.56 -1.19,-8.1 -6.16,-12.3 -15.49,-12.83 a 55.4,55.4 0 0 0 -22.75,3.7 c -2,0.74 -2.64,0.35 -3.21,-1.64 -1.34,-4.62 -2.93,-9.17 -4.46,-13.74 -0.36,-1.09 -0.74,-2 0.77,-2.6 15,-6.21 30.37,-8.15 46.13,-4 12.55,3.3 19.16,12.19 21.25,24.73 a 50.89,50.89 0 0 1 0.61,8.45 c 0,15.48 0,31 0,46.44 0,2 -0.53,2.54 -2.5,2.5 -6.08,-0.13 -12.16,-0.12 -18.24,0 -1.78,0 -2.34,-0.54 -2.22,-2.26 0.18,-1.98 0.07,-3.95 0.07,-6.48 z m -17.87,-6.25 c 0.78,0 1.45,0 2.11,0 10.21,-0.45 16.47,-6.82 16.42,-16.51 a 2.59,2.59 0 0 0 -2.06,-2.86 33.89,33.89 0 0 0 -7.72,-1.89 c -5.4,-0.51 -10.81,-0.81 -15.86,1.78 -4.14,2.13 -5.94,5.64 -5.68,10.22 0.23,4 2.75,6.94 7,8.42 a 14.81,14.81 0 0 0 5.79,0.84 z" id="path14" inkscape:connector-curvature="0" style="fill:#4a76b4"/>
  <path class="cls-4" d="m 441.15593,96.67695 c 2.48,-2.57 4.25,-4.77 6.47,-6.53 9.25,-7.33 19.49,-8.13 30.1,-3.9 10.16,4 14.29,12.63 15.6,22.88 0.82,6.46 0.4,13 0.42,19.44 0,12.57 0,25.13 0.06,37.7 0,1.88 -0.52,2.39 -2.38,2.35 -6.41,-0.11 -12.83,-0.12 -19.24,0 -1.94,0 -2.32,-0.62 -2.32,-2.42 0.07,-14.81 0,-29.62 0,-44.43 0,-4.33 -0.64,-8.54 -3.59,-11.92 -4.25,-4.85 -9.75,-5.34 -15.54,-3.69 -5.45,1.55 -8.92,6.3 -9.42,12.53 -0.19,2.48 -0.19,5 -0.2,7.48 0,13.31 0,26.63 0,39.94 0,2 -0.49,2.55 -2.49,2.51 -6.33,-0.13 -12.66,-0.09 -19,0 -1.61,0 -2.35,-0.24 -2.34,-2.13 q 0.09,-39.57 0,-79.13 c 0,-1.68 0.54,-2.1 2.14,-2.08 6.49,0.08 13,0.1 19.49,0 1.85,0 2.23,0.66 2.17,2.32 -0.02,2.78 0.07,5.59 0.07,9.08 z" id="path16" inkscape:connector-curvature="0" style="fill:#4a77b4"/>
  <path class="cls-3" d="m 163.79593,124.66695 a 42.29,42.29 0 0 1 38.31,-40.5 c 11.18,-1.05 21.76,0.51 31.18,7.09 2.53,1.77 6,3.56 6.52,6.23 0.52,2.67 -3.24,4.49 -5.13,6.68 -2.18,2.51 -4.63,4.79 -6.75,7.35 -1.38,1.67 -2.21,1.83 -3.79,0.14 a 22.22,22.22 0 0 0 -15.14,-7.35 c -8.27,-0.5 -14.66,2.94 -18.65,10.11 -4.61,8.3 -4.58,16.93 -0.07,25.27 5.37,9.92 18.05,13.23 28.46,7.71 a 31.39,31.39 0 0 0 6.87,-4.94 c 1.08,-1 1.76,-1.24 2.93,0 3.66,3.87 7.44,7.63 11.24,11.36 1,0.93 1.13,1.5 0.16,2.61 -18.46,21 -55.66,18.16 -70.14,-6.48 a 43.67,43.67 0 0 1 -6,-25.28 z" id="path18" inkscape:connector-curvature="0" style="fill:#4a76b4"/>
  <path class="cls-5" d="m 577.86593,49.49695 c -5.9,4.48 -11.8,4.54 -16,0.27 a 12.22,12.22 0 0 1 -0.85,-15.37 c 3.86,-5 9.39,-5.39 16.65,-1.22 0.86,-0.56 -0.32,-2.23 1.17,-2.34 a 21.54,21.54 0 0 1 4.47,0.1 c 0.67,0.09 0.45,1 0.45,1.52 0,6.23 0.15,12.47 0,18.7 -0.15,6.23 -3.39,9.83 -9.59,10.85 a 21.2,21.2 0 0 1 -12.42,-1.65 c -1.35,-0.61 -2.13,-1.22 -1,-2.7 0.75,-1 0.65,-3.17 3,-1.73 a 12.81,12.81 0 0 0 7.2,1.67 c 4.93,-0.15 7.26,-2.79 6.92,-8.1 z m -13.45,-7.89 a 6.72,6.72 0 0 0 6.76,6.58 6.94,6.94 0 0 0 7,-6.64 c 0,-3.67 -3.11,-6.47 -7.13,-6.45 a 6.36,6.36 0 0 0 -6.63,6.51 z" id="path20" inkscape:connector-curvature="0" style="fill:#787978"/>
  <path class="cls-4" d="m 309.63593,50.76695 c -4.24,5.24 -8.52,9.81 -11.93,15 -3.41,5.19 -7.61,7.48 -13.83,6.52 -2.93,-0.45 -6,-0.1 -9,-0.06 -1.33,0 -1.93,-0.21 -1.08,-1.65 q 5.5,-9.33 10.93,-18.71 a 2,2 0 0 1 2,-1.08 c 7.45,-0.01 14.85,-0.02 22.91,-0.02 z" id="path22" inkscape:connector-curvature="0" style="fill:#4a77b4"/>
  <path class="cls-5" d="m 402.27593,42.81695 c 0,7.19 -5.59,12.61 -13,12.6 a 12.53,12.53 0 0 1 -12.88,-12.46 c -0.07,-7.23 5.61,-12.69 13.17,-12.68 a 12.31,12.31 0 0 1 12.71,12.54 z m -5.75,0 c 0,-4.42 -3,-7.59 -7.14,-7.62 -4.14,-0.03 -7.11,3.05 -7.1,7.57 0.01,4.52 3,7.61 7.13,7.62 4.13,0.01 7.13,-3.03 7.11,-7.54 z" id="path24" inkscape:connector-curvature="0" style="fill:#787978"/>
  <path class="cls-5" d="m 474.25593,51.97695 c -2.3,2.43 -4.74,3.57 -7.78,3.38 -4.08,-0.26 -7,-2.48 -7.65,-6.54 -1,-5.6 -0.23,-11.27 -0.41,-16.91 0,-0.89 0.46,-1.15 1.24,-1.12 0.33,0 0.67,0 1,0 4.07,0.06 3.44,-0.47 3.5,3.38 0,3.65 0,7.31 0.12,11 0.15,3.34 2,5.07 4.94,5.06 a 5,5 0 0 0 5.22,-5.19 c 0.16,-4 0.14,-8 0.05,-12 0,-1.68 0.34,-2.36 2.17,-2.29 4.36,0.19 3.57,-0.41 3.6,3.54 0,5.91 0.06,11.81 0,17.71 0,1.07 0.92,2.77 -1.49,2.89 -3.82,0.17 -4.03,0.15 -4.51,-2.91 z" id="path26" inkscape:connector-curvature="0" style="fill:#787978"/>
  <path class="cls-6" d="m 413.35593,33.83695 c 2.19,-2 4,-3.47 6.68,-3.56 5.86,-0.22 9.3,2.89 9.4,8.76 0.09,4.57 0,9.15 0.06,13.72 0,1.62 -0.43,2.17 -2.09,2.12 -4.33,-0.15 -3.45,0.3 -3.51,-3.37 -0.06,-3.41 0,-6.82 0,-10.23 0,-3.73 -1.9,-5.87 -5,-5.91 -3.1,-0.04 -5.36,2.18 -5.47,5.85 -0.11,3.67 -0.19,7.49 0,11.22 0.14,2.36 -0.94,2.48 -2.77,2.45 -1.83,-0.03 -3,0 -2.94,-2.56 0.22,-6.31 0.16,-12.64 0,-19 0,-2 0.45,-2.79 2.58,-2.63 1.88,0.18 3.97,-0.33 3.06,3.14 z" id="path28" inkscape:connector-curvature="0" style="fill:#757675"/>
  <path class="cls-6" d="m 537.35593,33.68695 c 2.36,-2.21 4.68,-3.55 7.76,-3.43 4.66,0.17 8,3 8.17,7.67 0.24,5.14 0.08,10.31 0.13,15.46 0,1.07 -0.37,1.4 -1.44,1.48 -4.15,0.31 -4.15,0.35 -4.15,-3.73 0,-3.5 0.06,-7 0,-10.48 0,-2.09 -0.8,-4 -2.9,-4.85 a 5.19,5.19 0 0 0 -5.43,0.67 c -1.67,1.26 -2.1,3.14 -2.11,5.11 0,3.66 -0.19,7.33 0,11 0.16,2.55 -1.28,2.23 -2.9,2.3 -1.8,0.08 -2.88,0 -2.8,-2.41 q 0.27,-9.36 0,-18.71 c -0.07,-2.37 0.48,-3.2 3,-3 1.93,0.07 3.39,0.1 2.67,2.92 z" id="path30" inkscape:connector-curvature="0" style="fill:#757675"/>
  <path class="cls-5" d="m 444.14593,55.30695 a 17.06,17.06 0 0 1 -8.75,-2.6 c -1.29,-0.74 -1.4,-1.56 -0.47,-2.55 0.76,-0.82 0.85,-2.85 2.87,-1.56 a 11.67,11.67 0 0 0 7.06,2.13 c 1.39,-0.09 2.72,-0.44 3,-2 0.28,-1.56 -1,-2.35 -2.23,-2.83 -2.09,-0.8 -4.28,-1.37 -6.35,-2.21 a 6,6 0 0 1 -4.14,-5.94 6.66,6.66 0 0 1 4.18,-6.52 c 4.35,-1.92 8.47,-0.81 12.45,1.24 1.55,0.79 0.38,1.79 -0.1,2.43 -0.48,0.64 -0.43,2.69 -2.32,1.64 a 15.74,15.74 0 0 0 -4.69,-1.63 4.44,4.44 0 0 0 -2.92,0.34 c -1.7,0.86 -1.88,2.43 -0.31,3.5 a 15.34,15.34 0 0 0 3.17,1.42 c 1.24,0.48 2.54,0.79 3.77,1.3 3.69,1.54 5.19,3.81 4.84,7.24 -0.33,3.21 -2.58,5.58 -6.14,6.34 a 24.28,24.28 0 0 1 -2.92,0.26 z" id="path32" inkscape:connector-curvature="0" style="fill:#787978"/>
  <path class="cls-5" d="m 363.75593,55.30695 a 12,12 0 0 1 -12,-8.67 12.87,12.87 0 0 1 5.13,-14.47 13.2,13.2 0 0 1 15.17,0.8 c 0.73,0.6 2,1.33 0.64,2.26 -1.17,0.79 -1.36,3.75 -3.91,1.9 -3.37,-2.43 -6.32,-2.58 -8.94,-0.62 a 8.06,8.06 0 0 0 -2.56,8.76 c 1.48,4.91 6.89,6.64 11.26,3.59 a 3.31,3.31 0 0 1 4.72,1.65 c 0.3,0.88 -0.43,1.19 -0.86,1.61 -2.2,2.19 -4.99,3.19 -8.65,3.19 z" id="path34" inkscape:connector-curvature="0" style="fill:#787978"/>
  <path class="cls-6" d="m 501.25593,43.54695 c 0,-1.5 0,-3 0,-4.49 0,-1.71 0.63,-3.59 -2.43,-3.66 -1.5,0 -0.57,-2.09 -0.78,-3.22 -0.15,-0.84 0.16,-1.54 1.2,-1.38 2,0.32 2.17,-0.86 2,-2.36 0,-0.41 0,-0.84 0,-1.24 -0.4,-2.34 0.43,-3.07 2.91,-3.09 2.48,-0.02 2.79,1 2.72,3 -0.13,3.65 0,3.76 3.63,3.61 2,-0.08 3,0.28 2.83,2.66 -0.12,1.71 -0.52,2.26 -2.27,2.24 -4.23,-0.06 -4.23,0 -4.23,4.34 0,2.24 0,4.49 0,6.73 0,2.86 1.3,3.89 4.06,3.48 0.75,-0.11 2,-1.24 2.23,0.18 0.23,1.42 1,3.17 -0.8,4 a 9,9 0 0 1 -8.17,0 c -2.42,-1.19 -3,-3.41 -2.9,-5.88 0.03,-1.6 0,-3.26 0,-4.92 z" id="path36" inkscape:connector-curvature="0" style="fill:#757675"/>
  <path class="cls-6" d="m 487.35593,38.04695 c 0,-4.82 0.12,-9.65 0,-14.47 -0.08,-2.35 1.32,-2 2.7,-2 1.38,0 3,-0.64 3,2 -0.12,9.72 -0.08,19.45 0,29.18 0,1.61 -0.43,2.16 -2.09,2.11 -4.33,-0.15 -3.46,0.3 -3.51,-3.36 -0.16,-4.48 -0.1,-8.97 -0.1,-13.46 z" id="path38" inkscape:connector-curvature="0" style="fill:#757675"/>
  <path class="cls-5" d="m 519.01593,42.51695 c 0,-3.24 0.08,-6.48 0,-9.71 -0.06,-1.67 0.54,-2.25 2.14,-2 a 8.28,8.28 0 0 0 2,0 c 1.34,-0.14 1.69,0.46 1.68,1.73 q -0.08,10.33 0,20.67 c 0,1.32 -0.46,1.8 -1.74,1.69 a 11.18,11.18 0 0 0 -2.24,0 c -1.47,0.16 -1.84,-0.52 -1.81,-1.88 0.02,-3.52 -0.03,-7.01 -0.03,-10.5 z" id="path40" inkscape:connector-curvature="0" style="fill:#787978"/>
  <path class="cls-5" d="m 521.90593,27.10695 c -2.31,0.55 -3.14,-0.06 -3.19,-2.54 -0.06,-2.67 1,-2.9 3.17,-2.84 2,0.05 3.15,0.08 3,2.7 -0.03,2.45 -0.66,3.41 -2.98,2.68 z" id="path42" inkscape:connector-curvature="0" style="fill:#787978"/>
  <path class="cls-1" d="m 282.85593,120.38695 c -5.16,0 -10.33,0 -15.49,0 -1.53,0 -2,-0.25 -1.62,-2 1.85,-8.36 7.58,-14.4 14.77,-15.31 8.88,-1.12 15.63,3 18.74,11.4 2.1,5.83 2.1,5.91 -3.9,5.91 z" id="path44" inkscape:connector-curvature="0" style="fill:#fefefe"/>
  <path class="cls-1" d="m 543.35593,120.38695 c -5.25,0 -10.5,0 -15.74,0 -1.56,0 -2,-0.42 -1.75,-2 1.6,-8.4 7.72,-14.39 15.83,-15.37 7.72,-0.94 14.48,3.34 17.54,11.09 2.46,6.23 2.43,6.27 -4.14,6.27 z" id="path46" inkscape:connector-curvature="0" style="fill:#fefefe"/>
  <path class="cls-1" d="m 364.16593,153.65695 a 14.81,14.81 0 0 1 -5.76,-0.85 c -4.28,-1.48 -6.8,-4.41 -7,-8.42 -0.26,-4.58 1.54,-8.09 5.68,-10.22 5,-2.59 10.46,-2.29 15.86,-1.78 a 33.89,33.89 0 0 1 7.72,1.89 2.59,2.59 0 0 1 2.06,2.86 c 0.05,9.69 -6.21,16.06 -16.42,16.51 -0.69,0.03 -1.36,0.01 -2.14,0.01 z" id="path48" inkscape:connector-curvature="0" style="fill:#fefefe"/>
  <path class="cls-1" d="m 564.41593,41.60695 a 6.36,6.36 0 0 1 6.68,-6.51 c 4,0 7.12,2.78 7.13,6.45 a 6.94,6.94 0 0 1 -7,6.64 6.72,6.72 0 0 1 -6.81,-6.58 z" id="path50" inkscape:connector-curvature="0" style="fill:#fefefe"/>
  <path class="cls-1" d="m 396.52593,42.84695 c 0,4.51 -2.86,7.57 -7.11,7.57 -4.25,0 -7.13,-3.17 -7.13,-7.62 0,-4.45 2.89,-7.61 7.1,-7.57 4.21,0.04 7.12,3.2 7.14,7.62 z" id="path52" inkscape:connector-curvature="0" style="fill:#fefefe"/>
  <path class="cls-7" d="m 21.53593,193.50695 h 17.55 c 12.64,0 21.31,7.45 21.31,18.9 0,11.45 -8.67,18.9 -21.31,18.9 h -17.55 z m 17.11,30.62 c 7.67,0 12.69,-4.48 12.69,-11.72 0,-7.24 -5,-11.72 -12.69,-11.72 h -8.17 v 23.44 z" id="path54" inkscape:connector-curvature="0" style="fill:#767675"/>
  <path class="cls-7" d="m 89.25593,223.20695 h -17.9 l -3.43,8.1 h -9.16 l 17.22,-37.8 h 8.83 l 17.25,37.8 h -9.38 z m -2.81,-6.64 -6.09,-14.47 -6.12,14.47 z" id="path56" inkscape:connector-curvature="0" style="fill:#767675"/>
  <path class="cls-7" d="m 109.40593,200.63695 h -12.36 v -7.13 h 33.67 v 7.13 h -12.36 v 30.67 h -8.94 z" id="path58" inkscape:connector-curvature="0" style="fill:#767675"/>
  <path class="cls-7" d="m 156.26593,223.20695 h -17.91 l -3.43,8.1 h -9.16 l 17.22,-37.8 h 8.83 l 17.26,37.8 h -9.39 z m -2.81,-6.64 -6.1,-14.47 -6.12,14.47 z" id="path60" inkscape:connector-curvature="0" style="fill:#767675"/>
  <path class="cls-7" d="m 218.35593,231.30695 v -22.68 l -11.42,18.68 h -4 l -11.31,-18.19 v 22.19 h -8.39 v -37.8 h 7.4 l 14.46,23.49 14.26,-23.49 h 7.34 l 0.11,37.8 z" id="path62" inkscape:connector-curvature="0" style="fill:#767675"/>
  <path class="cls-7" d="m 258.60593,223.20695 h -17.94 l -3.42,8.1 h -9.16 l 17.21,-37.8 h 8.83 l 17.28,37.8 h -9.38 z m -2.82,-6.64 -6.13,-14.47 -6.12,14.47 z" id="path64" inkscape:connector-curvature="0" style="fill:#767675"/>
  <path class="cls-7" d="m 308.11593,193.50695 v 37.8 h -7.34 l -19.27,-23 v 23 h -8.83 v -37.8 h 7.4 l 19.21,22.95 v -22.95 z" id="path66" inkscape:connector-curvature="0" style="fill:#767675"/>
  <path class="cls-7" d="m 339.95593,223.20695 h -17.93 l -3.42,8.1 h -9.17 l 17.22,-37.8 h 8.83 l 17.28,37.8 h -9.41 z m -2.81,-6.64 -6.13,-14.47 -6.12,14.47 z" id="path68" inkscape:connector-curvature="0" style="fill:#767675"/>
  <path class="cls-7" d="m 379.59593,211.81695 h 8.16 v 15.33 a 27.08,27.08 0 0 1 -15.61,4.81 c -12.15,0 -21.09,-8.16 -21.09,-19.55 0,-11.39 8.94,-19.55 21.25,-19.55 6.79,0 12.42,2.27 16.17,6.54 l -5.74,5.18 a 13.19,13.19 0 0 0 -10,-4.27 c -7.5,0 -12.64,4.92 -12.64,12.1 0,7.18 5.14,12.1 12.53,12.1 a 14.58,14.58 0 0 0 7,-1.62 z" id="path70" inkscape:connector-curvature="0" style="fill:#767675"/>
  <path class="cls-7" d="m 423.19593,224.30695 v 7 h -29.91 v -37.8 h 29.19 v 7 h -20.31 v 8.21 h 17.94 v 6.8 h -17.94 v 8.79 z" id="path72" inkscape:connector-curvature="0" style="fill:#767675"/>
  <path class="cls-7" d="m 462.71593,231.30695 v -22.68 l -11.42,18.68 h -4 l -11.32,-18.19 v 22.19 h -8.39 v -37.8 h 7.4 l 14.46,23.49 14.24,-23.49 h 7.34 l 0.11,37.8 z" id="path74" inkscape:connector-curvature="0" style="fill:#767675"/>
  <path class="cls-7" d="m 507.42593,224.30695 v 7 h -29.91 v -37.8 h 29.19 v 7 h -20.35 v 8.21 h 18 v 6.8 h -18 v 8.79 z" id="path76" inkscape:connector-curvature="0" style="fill:#767675"/>
  <path class="cls-7" d="m 547.22593,193.50695 v 37.8 h -7.35 l -19.26,-23 v 23 h -8.83 v -37.8 h 7.4 l 19.2,22.95 v -22.95 z" id="path78" inkscape:connector-curvature="0" style="fill:#767675"/>
  <path class="cls-7" d="m 561.62593,200.63695 h -12.36 v -7.13 h 33.67 v 7.13 h -12.37 v 30.67 h -8.94 z" id="path80" inkscape:connector-curvature="0" style="fill:#767675"/>
  <text x="-651.64404" y="-466.69305" id="text82"/>
</svg>